<svg width="36" height="36" viewBox="0 0 36 36" fill="none" xmlns="http://www.w3.org/2000/svg">
<path d="M2.25 1.75H5.0775C6.8325 1.75 8.21375 3.26125 8.0675 5L6.71875 21.185C6.66609 21.812 6.74424 22.4432 6.94826 23.0384C7.15227 23.6336 7.4777 24.18 7.90393 24.6429C8.33015 25.1058 8.84788 25.4751 9.4243 25.7274C10.0007 25.9798 10.6233 26.1096 11.2525 26.1087H28.5588C30.8988 26.1087 32.9463 24.1913 33.125 21.8675L34.0025 9.68C34.1975 6.9825 32.15 4.78875 29.4362 4.78875H8.4575M13.625 11.5H33.125M25.4062 34.25C25.945 34.25 26.4616 34.036 26.8426 33.6551C27.2235 33.2741 27.4375 32.7575 27.4375 32.2188C27.4375 31.68 27.2235 31.1634 26.8426 30.7824C26.4616 30.4015 25.945 30.1875 25.4062 30.1875C24.8675 30.1875 24.3509 30.4015 23.9699 30.7824C23.589 31.1634 23.375 31.68 23.375 32.2188C23.375 32.7575 23.589 33.2741 23.9699 33.6551C24.3509 34.036 24.8675 34.25 25.4062 34.25ZM12.4062 34.25C12.945 34.25 13.4616 34.036 13.8426 33.6551C14.2235 33.2741 14.4375 32.7575 14.4375 32.2188C14.4375 31.68 14.2235 31.1634 13.8426 30.7824C13.4616 30.4015 12.945 30.1875 12.4062 30.1875C11.8675 30.1875 11.3509 30.4015 10.9699 30.7824C10.589 31.1634 10.375 31.68 10.375 32.2188C10.375 32.7575 10.589 33.2741 10.9699 33.6551C11.3509 34.036 11.8675 34.25 12.4062 34.25Z" stroke="#001C57" stroke-width="3" stroke-miterlimit="10" stroke-linecap="round" stroke-linejoin="round"/>
</svg>
